<svg width="72" height="72" viewBox="0 0 72 72" fill="none" xmlns="http://www.w3.org/2000/svg">
<path fill-rule="evenodd" clip-rule="evenodd" d="M36 52C45.9411 52 54 43.9411 54 34H18C18 43.9411 26.0589 52 36 52Z" fill="white"/>
<path d="M54 34H55C55 33.4477 54.5523 33 54 33V34ZM18 34V33C17.4477 33 17 33.4477 17 34H18ZM53 34C53 43.3888 45.3888 51 36 51V53C46.4934 53 55 44.4934 55 34H53ZM18 35H54V33H18V35ZM36 51C26.6112 51 19 43.3888 19 34H17C17 44.4934 25.5066 53 36 53V51Z" fill="white"/>
<path fill-rule="evenodd" clip-rule="evenodd" d="M15.8703 55C15.5914 55 15.3245 54.8842 15.1384 54.6765C14.238 53.6714 13.4091 52.6009 12.6599 51.4729C12.2337 50.8314 12.7094 50 13.4796 50H58.5203C59.2905 50 59.7662 50.8314 59.34 51.4729C58.5908 52.6009 57.7619 53.6714 56.8615 54.6765C56.6754 54.8842 56.4085 55 56.1297 55H15.8703Z" fill="white"/>
<path fill-rule="evenodd" clip-rule="evenodd" d="M48.0399 50C48.7653 50 49.2472 50.7475 48.9166 51.3931C48.3424 52.5144 47.7073 53.5794 47.0174 54.5803C46.8345 54.8455 46.5311 55 46.209 55H56.1296C56.4085 55 56.6754 54.8842 56.8615 54.6765C57.7619 53.6714 58.5907 52.6009 59.34 51.4729C59.7662 50.8314 59.2905 50 58.5203 50H48.0399Z" fill="#D0CFCE"/>
<path fill-rule="evenodd" clip-rule="evenodd" d="M44.2544 50C50.0431 47.0075 54 40.9659 54 34H47C47 40.9659 44.5819 47.0075 41.0444 50H44.2544Z" fill="#D0CFCE"/>
<path d="M54 34H55V33H54V34ZM44.2544 50V51H44.4976L44.7136 50.8883L44.2544 50ZM47 34V33H46V34H47ZM41.0444 50L40.3985 49.2365L38.3138 51H41.0444V50ZM53 34C53 40.5774 49.2648 46.2842 43.7952 49.1117L44.7136 50.8883C50.8214 47.7309 55 41.3543 55 34H53ZM47 35H54V33H47V35ZM41.6902 50.7635C45.5261 47.5186 48 41.1473 48 34H46C46 40.7844 43.6377 46.4965 40.3985 49.2365L41.6902 50.7635ZM44.2544 49H41.0444V51H44.2544V49Z" fill="#D0CFCE"/>
<path fill-rule="evenodd" clip-rule="evenodd" d="M33.0113 20.6181C33.0075 20.6143 33.0037 20.6105 32.9999 20.6067C31.0477 18.6541 31.0477 15.4883 32.9999 13.5356C34.9521 11.583 38.1173 11.583 40.0695 13.5356C38.8983 12.3641 36.9991 12.3641 35.8278 13.5356C34.6564 14.7072 34.6564 16.6067 35.8278 17.7783L39.2805 21.2317C39.2843 21.2355 39.2881 21.2393 39.2919 21.2431C41.2441 23.1957 41.2441 26.3615 39.2919 28.3141C37.3397 30.2667 34.1745 30.2667 32.2222 28.3141C33.3935 29.4857 35.2927 29.4857 36.464 28.3141C37.6354 27.1425 37.6354 25.2431 36.464 24.0715L33.0113 20.6181Z" fill="#FF6600"/>
<path d="M39.2805 21.2316L38.5757 21.9409L38.5735 21.9387L39.2805 21.2316ZM39.2919 28.3141L38.5849 27.607L39.2919 28.3141ZM31.5152 29.0212C31.1248 28.6306 31.1248 27.9975 31.5152 27.607C31.9057 27.2164 32.5387 27.2164 32.9292 27.607L31.5152 29.0212ZM36.464 28.3141L35.7571 27.607L36.464 28.3141ZM36.464 24.0714L35.7571 24.7785L36.464 24.0714ZM33.0113 20.618L33.716 19.9086L33.7183 19.9109L33.0113 20.618ZM32.9999 20.6066L33.7069 19.8995L32.9999 20.6066ZM32.9999 13.5356L32.293 12.8285L32.9999 13.5356ZM40.7766 12.8285C41.167 13.219 41.167 13.8522 40.7766 14.2427C40.3861 14.6332 39.7531 14.6332 39.3626 14.2427L40.7766 12.8285ZM35.8278 13.5356L36.5347 14.2427L35.8278 13.5356ZM35.8278 17.7782L36.5347 17.0711L35.8278 17.7782ZM39.9854 20.5224C39.9897 20.5268 39.9943 20.5313 39.9988 20.5359L38.5849 21.9501C38.5819 21.9471 38.5788 21.944 38.5757 21.9409L39.9854 20.5224ZM39.9988 20.5359C42.3416 22.879 42.3416 26.678 39.9988 29.0212L38.5849 27.607C40.1467 26.0449 40.1467 23.5122 38.5849 21.9501L39.9988 20.5359ZM39.9988 29.0212C37.6562 31.3643 33.858 31.3643 31.5152 29.0212L32.9292 27.607C34.491 29.169 37.0231 29.169 38.5849 27.607L39.9988 29.0212ZM32.9292 27.607C33.7101 28.388 34.9761 28.388 35.7571 27.607L37.171 29.0212C35.6092 30.5833 33.077 30.5833 31.5152 29.0212L32.9292 27.607ZM35.7571 27.607C36.5379 26.8259 36.5379 25.5596 35.7571 24.7785L37.171 23.3643C38.7328 24.9264 38.7328 27.4591 37.171 29.0212L35.7571 27.607ZM35.7571 24.7785L32.3044 21.3251L33.7183 19.9109L37.171 23.3643L35.7571 24.7785ZM32.3066 21.3274C32.3021 21.3228 32.2975 21.3183 32.293 21.3137L33.7069 19.8995C33.7099 19.9026 33.713 19.9056 33.716 19.9086L32.3066 21.3274ZM32.293 21.3138C29.9502 18.9706 29.9502 15.1716 32.293 12.8285L33.7069 14.2427C32.1451 15.8048 32.1451 18.3374 33.7069 19.8995L32.293 21.3138ZM32.293 12.8285C34.6356 10.4853 38.4339 10.4853 40.7766 12.8285L39.3626 14.2427C37.8008 12.6806 35.2687 12.6806 33.7069 14.2427L32.293 12.8285ZM39.3626 14.2427C38.5817 13.4616 37.3157 13.4616 36.5347 14.2427L35.1208 12.8285C36.6826 11.2664 39.2148 11.2664 40.7766 12.8285L39.3626 14.2427ZM36.5347 14.2427C35.7539 15.0237 35.7539 16.2901 36.5347 17.0711L35.1208 18.4853C33.559 16.9232 33.559 14.3906 35.1208 12.8285L36.5347 14.2427ZM36.5347 17.0711L39.9875 20.5245L38.5735 21.9387L35.1208 18.4853L36.5347 17.0711Z" fill="#FF6600"/>
<path d="M24 47.4166C20.3175 44.1207 18 39.331 18 34H54C54 39.331 51.6825 44.1207 48 47.4166" stroke="black" stroke-width="2" stroke-linecap="round" stroke-linejoin="round"/>
<path d="M56.8615 54.6765L56.1167 54.0092L56.8615 54.6765ZM59.34 51.4729L60.173 52.0262L59.34 51.4729ZM15.1384 54.6765L14.3936 55.3437L15.1384 54.6765ZM15.8832 54.0092C15.0148 53.0398 14.2154 52.0073 13.4929 50.9196L11.8269 52.0262C12.6029 53.1944 13.4612 54.303 14.3936 55.3437L15.8832 54.0092ZM13.4796 51H58.5203V49H13.4796V51ZM58.5071 50.9196C57.7845 52.0073 56.9851 53.0398 56.1167 54.0092L57.6063 55.3437C58.5387 54.303 59.397 53.1944 60.173 52.0262L58.5071 50.9196ZM56.1297 54H15.8703V56H56.1297V54ZM56.1167 54.0092C56.1209 54.0045 56.1252 54.0019 56.1277 54.0008C56.13 53.9998 56.1307 54 56.1297 54V56C56.6844 56 57.225 55.7693 57.6063 55.3437L56.1167 54.0092ZM58.5203 51C58.5261 51 58.5272 51.0007 58.5252 51.0001C58.5233 50.9996 58.5206 50.9985 58.5178 50.9969C58.5128 50.9938 58.5095 50.9902 58.5071 50.9859C58.5046 50.9814 58.4999 50.9704 58.5002 50.9525C58.5004 50.9435 58.5019 50.9347 58.5042 50.9273C58.5066 50.9198 58.5087 50.9171 58.5071 50.9196L60.173 52.0262C61.0716 50.6735 60.032 49 58.5203 49V51ZM13.4929 50.9196C13.4912 50.9171 13.4933 50.9198 13.4957 50.9273C13.498 50.9347 13.4995 50.9435 13.4997 50.9525C13.5 50.9704 13.4953 50.9814 13.4928 50.9859C13.4904 50.9902 13.4871 50.9938 13.4821 50.9968C13.4793 50.9985 13.4766 50.9996 13.4747 51.0001C13.4727 51.0007 13.4738 51 13.4796 51V49C11.9679 49 10.9283 50.6735 11.8269 52.0262L13.4929 50.9196ZM14.3936 55.3437C14.7749 55.7693 15.3155 56 15.8703 56V54C15.8692 54 15.8699 53.9998 15.8722 54.0008C15.8747 54.0019 15.879 54.0045 15.8832 54.0092L14.3936 55.3437Z" fill="black"/>
<path d="M51 45H55.5C58.5376 45 61 42.5376 61 39.5C61 36.4624 58.5376 34 55.5 34H53" stroke="black" stroke-width="2" stroke-linecap="round"/>
</svg>
